<svg width="108" height="37" viewBox="0 0 108 37" fill="none" xmlns="http://www.w3.org/2000/svg">
<g filter="url(#filter0_d_36_148)">
<path d="M6.5 17.05H94.1L86.4 24.65C85.4 25.65 85.4 27.25 86.4 28.15C87.4 29.15 89 29.15 89.9 28.15L102.8 15.15C103.2 14.75 103.2 14.15 102.8 13.75L89.9 0.75C88.9 -0.25 87.3 -0.25 86.4 0.75C85.4 1.75 85.4 3.35 86.4 4.25L94.1 11.85H6.5C5.1 11.85 4 12.95 4 14.35C4 15.95 5.1 17.05 6.5 17.05Z" fill="white"/>
</g>
<defs>
<filter id="filter0_d_36_148" x="0" y="0" width="107.1" height="36.8999" filterUnits="userSpaceOnUse" color-interpolation-filters="sRGB">
<feFlood flood-opacity="0" result="BackgroundImageFix"/>
<feColorMatrix in="SourceAlpha" type="matrix" values="0 0 0 0 0 0 0 0 0 0 0 0 0 0 0 0 0 0 127 0" result="hardAlpha"/>
<feOffset dy="4"/>
<feGaussianBlur stdDeviation="2"/>
<feComposite in2="hardAlpha" operator="out"/>
<feColorMatrix type="matrix" values="0 0 0 0 0 0 0 0 0 0 0 0 0 0 0 0 0 0 0.25 0"/>
<feBlend mode="normal" in2="BackgroundImageFix" result="effect1_dropShadow_36_148"/>
<feBlend mode="normal" in="SourceGraphic" in2="effect1_dropShadow_36_148" result="shape"/>
</filter>
</defs>
</svg>
