<svg width="67" height="66" viewBox="0 0 67 66" fill="none" xmlns="http://www.w3.org/2000/svg">
<g filter="url(#filter0_d_38_264)">
<path d="M52.3815 20.0025V41.3115C52.3815 44.0561 50.1569 46.2807 47.4133 46.2807H26.1748L16.0954 57.3681V46.2807H8.96817C6.22454 46.2807 4 44.0561 4 41.3125V20.0035C4 17.2588 6.22454 15.0343 8.96817 15.0343H47.4123C50.1569 15.0343 52.3815 17.2588 52.3815 20.0025Z" fill="#0391FD"/>
<path d="M57.4934 0.923035H19.0483C16.3046 0.923035 14.0801 3.14757 14.0801 5.89222V15.0343H47.4139C50.1575 15.0343 52.3821 17.2588 52.3821 20.0035V32.1694H57.4934C60.237 32.1694 62.4616 29.9449 62.4616 27.2002V5.89222C62.4616 3.14757 60.237 0.923035 57.4934 0.923035Z" fill="#0F71D3"/>
<path d="M29.1993 26.1367H15.088C14.5306 26.1367 14.0801 25.6852 14.0801 25.1288C14.0801 24.5724 14.5306 24.1208 15.088 24.1208H29.1993C29.7567 24.1208 30.2072 24.5724 30.2072 25.1288C30.2072 25.6852 29.7567 26.1367 29.1993 26.1367Z" fill="white"/>
<path d="M42.3026 32.1846H15.088C14.5306 32.1846 14.0801 31.733 14.0801 31.1766C14.0801 30.6203 14.5306 30.1687 15.088 30.1687H42.3026C42.86 30.1687 43.3106 30.6203 43.3106 31.1766C43.3106 31.733 42.86 32.1846 42.3026 32.1846Z" fill="white"/>
<path d="M42.3026 38.2323H15.088C14.5306 38.2323 14.0801 37.7807 14.0801 37.2243C14.0801 36.6679 14.5306 36.2164 15.088 36.2164H42.3026C42.86 36.2164 43.3106 36.6679 43.3106 37.2243C43.3106 37.7807 42.86 38.2323 42.3026 38.2323Z" fill="white"/>
</g>
<defs>
<filter id="filter0_d_38_264" x="0" y="0.923035" width="66.4614" height="64.4451" filterUnits="userSpaceOnUse" color-interpolation-filters="sRGB">
<feFlood flood-opacity="0" result="BackgroundImageFix"/>
<feColorMatrix in="SourceAlpha" type="matrix" values="0 0 0 0 0 0 0 0 0 0 0 0 0 0 0 0 0 0 127 0" result="hardAlpha"/>
<feOffset dy="4"/>
<feGaussianBlur stdDeviation="2"/>
<feComposite in2="hardAlpha" operator="out"/>
<feColorMatrix type="matrix" values="0 0 0 0 0 0 0 0 0 0 0 0 0 0 0 0 0 0 0.25 0"/>
<feBlend mode="normal" in2="BackgroundImageFix" result="effect1_dropShadow_38_264"/>
<feBlend mode="normal" in="SourceGraphic" in2="effect1_dropShadow_38_264" result="shape"/>
</filter>
</defs>
</svg>
