<svg width="116" height="19" viewBox="0 0 116 19" fill="none" xmlns="http://www.w3.org/2000/svg">
<rect x="0.981934" y="5.24121" width="0.690942" height="8.8792" rx="0.345471" fill="#333333"/>
<rect x="3.05469" y="4.33569" width="0.690942" height="10.6913" rx="0.345471" fill="#333333"/>
<rect x="5.12744" y="3.06726" width="0.690942" height="13.2282" rx="0.345471" fill="#333333"/>
<rect x="7.2002" y="2.34235" width="0.690942" height="14.6778" rx="0.345471" fill="#333333"/>
<rect x="9.27295" y="1.07428" width="0.690942" height="17.2148" rx="0.345471" fill="#333333"/>
<rect x="11.3462" y="1.79828" width="0.690942" height="15.5839" rx="0.345471" fill="#333333"/>
<rect x="13.4189" y="4.33569" width="0.690942" height="10.6913" rx="0.345471" fill="#333333"/>
<rect x="15.4917" y="5.7851" width="0.690942" height="7.79194" rx="0.345471" fill="#333333"/>
<rect x="17.5645" y="3.97296" width="0.690942" height="11.2349" rx="0.345471" fill="#333333"/>
<rect x="19.6372" y="6.14795" width="0.690942" height="6.8859" rx="0.345471" fill="#333333"/>
<rect x="21.71" y="7.59729" width="0.690942" height="3.98658" rx="0.345471" fill="#333333"/>
<rect x="23.7832" y="7.9599" width="0.690942" height="3.44295" rx="0.345471" fill="#333333"/>
<rect x="25.856" y="8.14136" width="0.690942" height="2.89933" rx="0.345471" fill="#333333"/>
<rect x="27.9287" y="7.59729" width="0.690942" height="3.98658" rx="0.345471" fill="#333333"/>
<rect x="30.0015" y="7.05316" width="0.690942" height="5.07382" rx="0.345471" fill="#333333"/>
<rect x="32.0742" y="5.24121" width="0.690942" height="8.8792" rx="0.345471" fill="#333333"/>
<rect x="34.147" y="3.97296" width="0.690942" height="11.2349" rx="0.345471" fill="#333333"/>
<rect x="36.2202" y="2.34235" width="0.690942" height="14.6778" rx="0.345471" fill="#333333"/>
<rect x="38.293" y="0.892944" width="0.690942" height="17.5772" rx="0.345471" fill="#333333"/>
<path d="M40.3657 0.694224C40.3657 0.503426 40.5204 0.348755 40.7112 0.348755C40.902 0.348755 41.0567 0.503427 41.0567 0.694226V18.5771C41.0567 18.7679 40.902 18.9226 40.7112 18.9226C40.5204 18.9226 40.3657 18.7679 40.3657 18.5771V0.694224Z" fill="#333333"/>
<rect x="42.4385" y="1.79828" width="0.690942" height="15.5839" rx="0.345471" fill="#333333"/>
<rect x="44.5112" y="4.87921" width="0.690942" height="9.60402" rx="0.345471" fill="#333333"/>
<rect x="46.584" y="6.32922" width="0.690942" height="6.52349" rx="0.345471" fill="#333333"/>
<rect x="48.6567" y="4.33569" width="0.690942" height="10.6913" rx="0.345471" fill="#333333"/>
<rect x="50.7295" y="2.34235" width="0.690942" height="14.6778" rx="0.345471" fill="#333333"/>
<rect x="52.8027" y="4.87921" width="0.690942" height="9.60402" rx="0.345471" fill="#333333"/>
<rect x="54.8755" y="6.87238" width="0.690942" height="5.61745" rx="0.345471" fill="#333333"/>
<rect x="56.9482" y="7.9599" width="0.690942" height="3.44295" rx="0.345471" fill="#333333"/>
<rect x="58.8486" y="5.24121" width="0.690942" height="8.8792" rx="0.345471" fill="#333333"/>
<rect x="60.9214" y="4.33569" width="0.690942" height="10.6913" rx="0.345471" fill="#333333"/>
<rect x="62.9941" y="3.06726" width="0.690942" height="13.2282" rx="0.345471" fill="#333333"/>
<rect x="65.0669" y="2.34235" width="0.690942" height="14.6778" rx="0.345471" fill="#333333"/>
<rect x="67.1401" y="1.07428" width="0.690942" height="17.2148" rx="0.345471" fill="#333333"/>
<rect x="69.2129" y="1.79828" width="0.690942" height="15.5839" rx="0.345471" fill="#333333"/>
<rect x="71.2856" y="4.33569" width="0.690942" height="10.6913" rx="0.345471" fill="#333333"/>
<rect x="73.3584" y="5.7851" width="0.690942" height="7.79194" rx="0.345471" fill="#333333"/>
<rect x="75.4312" y="3.97296" width="0.690942" height="11.2349" rx="0.345471" fill="#333333"/>
<rect x="77.5039" y="6.14795" width="0.690942" height="6.8859" rx="0.345471" fill="#333333"/>
<rect x="79.5767" y="7.59729" width="0.690942" height="3.98658" rx="0.345471" fill="#333333"/>
<rect x="81.6499" y="7.9599" width="0.690942" height="3.44295" rx="0.345471" fill="#333333"/>
<rect x="83.7227" y="8.14136" width="0.690942" height="2.89933" rx="0.345471" fill="#333333"/>
<rect x="85.7954" y="7.59729" width="0.690942" height="3.98658" rx="0.345471" fill="#333333"/>
<rect x="87.8682" y="7.05316" width="0.690942" height="5.07382" rx="0.345471" fill="#333333"/>
<rect x="89.9409" y="5.24121" width="0.690942" height="8.8792" rx="0.345471" fill="#333333"/>
<rect x="92.0137" y="3.97296" width="0.690942" height="11.2349" rx="0.345471" fill="#333333"/>
<rect x="94.0864" y="2.34235" width="0.690942" height="14.6778" rx="0.345471" fill="#333333"/>
<rect x="96.1597" y="0.892944" width="0.690942" height="17.5772" rx="0.345471" fill="#333333"/>
<path d="M98.2324 0.694224C98.2324 0.503426 98.3871 0.348755 98.5779 0.348755C98.7687 0.348755 98.9234 0.503427 98.9234 0.694226V18.5771C98.9234 18.7679 98.7687 18.9226 98.5779 18.9226C98.3871 18.9226 98.2324 18.7679 98.2324 18.5771V0.694224Z" fill="#333333"/>
<rect x="100.305" y="1.79828" width="0.690942" height="15.5839" rx="0.345471" fill="#333333"/>
<rect x="102.378" y="4.87921" width="0.690942" height="9.60402" rx="0.345471" fill="#333333"/>
<rect x="104.451" y="6.32922" width="0.690942" height="6.52349" rx="0.345471" fill="#333333"/>
<rect x="106.523" y="4.33569" width="0.690942" height="10.6913" rx="0.345471" fill="#333333"/>
<rect x="108.596" y="2.34235" width="0.690942" height="14.6778" rx="0.345471" fill="#333333"/>
<rect x="110.669" y="4.87921" width="0.690942" height="9.60402" rx="0.345471" fill="#333333"/>
<rect x="112.742" y="6.87238" width="0.690942" height="5.61745" rx="0.345471" fill="#333333"/>
<rect x="114.815" y="7.9599" width="0.690942" height="3.44295" rx="0.345471" fill="#333333"/>
</svg>
