<svg width="10" height="11" viewBox="0 0 10 11" fill="none" xmlns="http://www.w3.org/2000/svg">
<path d="M9.34315 4.7201C9.49309 4.56971 9.73656 4.56934 9.88696 4.71927C10.0374 4.86921 10.0377 5.11269 9.88779 5.26308L5.31612 9.8487C4.10229 11.0662 2.13126 11.0692 0.913511 9.8552C-0.304041 8.63765 -0.304041 6.66872 0.910735 5.45394L5.7237 0.667198C6.61991 -0.224124 8.06839 -0.222144 8.96216 0.671625C9.85565 1.56512 9.85584 3.0137 8.96258 3.90743L4.07435 8.79823C3.49629 9.37659 2.55883 9.37684 1.98043 8.79875C1.40181 8.22012 1.40021 7.28287 1.97662 6.70251L5.48499 3.17012C5.63465 3.01944 5.87812 3.01861 6.0288 3.16826C6.17948 3.31792 6.18031 3.56139 6.03066 3.71207L2.52228 7.24446C2.24446 7.52418 2.24523 7.97593 2.52397 8.25467C2.80208 8.53263 3.2526 8.53251 3.5304 8.25457L8.41863 3.36376C9.01169 2.77039 9.01156 1.80865 8.41835 1.21543C7.82434 0.621421 6.86166 0.620105 6.26602 1.21249L1.45907 5.99323C0.540105 6.91219 0.540105 8.39418 1.45396 9.30804C2.37345 10.2247 3.85753 10.2225 4.77149 9.30572L9.34315 4.7201Z" fill="#333333"/>
</svg>
