<svg width="116" height="62" viewBox="0 0 116 62" fill="none" xmlns="http://www.w3.org/2000/svg">
<g filter="url(#filter0_d_38_511)">
<path d="M15.8349 30.511L16.6401 30.0466L23.6339 25.9945L23.6477 26.0019L36.8379 18.3898L36.8347 11.8679L4.5481 30.493L44.1985 53.0788L49.6561 49.9312L39.5514 44.1286L15.8349 30.511Z" fill="white"/>
<path d="M37.9518 19.0332L37.9587 34.1556L43.5607 37.3462L43.5432 0L4 22.8098L4.00318 29.5201L37.9475 9.94072L37.9518 19.0332Z" fill="white"/>
<path d="M44.674 39.2645L37.9584 35.4386L37.9578 35.4423L36.7513 34.7507L23.6492 27.2866L18.0647 30.5102L50.2181 48.9717L50.1964 3.18911L44.6559 0.00805664L44.674 39.2645Z" fill="white"/>
<path d="M61.8607 17.5606C62.0183 17.819 62.1002 18.1152 62.1002 18.446V22.3881C62.1002 22.7095 61.9458 22.9237 61.637 23.0309C61.3313 23.138 61.1769 23.3082 61.1769 23.5414C61.1769 23.7966 61.3187 23.9226 61.5992 23.9226H64.7314C65.0118 23.9226 65.1536 23.7966 65.1536 23.5414C65.1536 23.3082 65.0024 23.138 64.6936 23.0309C64.3848 22.9237 64.2303 22.7095 64.2303 22.3881V19.1487C64.2303 18.884 64.2461 18.6099 64.2776 18.3231C64.3091 18.0364 64.3721 17.819 64.473 17.6709L66.9277 14.0881C67.2901 13.565 67.6335 13.1365 67.9518 12.7961C68.1913 12.5504 68.311 12.3014 68.311 12.0493C68.311 11.9075 68.2732 11.7657 68.1913 11.6239L67.6304 10.6818C67.5169 10.5179 67.3751 10.4328 67.205 10.4328C67.1293 10.4328 67.0537 10.4486 66.9749 10.4801L65.4782 11.1355L65.8752 11.9296C66.0044 12.1943 66.0674 12.4054 66.0674 12.5661C66.0674 12.5913 66.0643 12.6134 66.0611 12.6323C66.0359 12.8087 65.9382 13.0262 65.7744 13.2783L63.5844 16.5995L60.6791 11.9926C60.5971 11.876 60.5562 11.7657 60.5562 11.6617V11.6145C60.5625 11.5672 60.5908 11.5168 60.6413 11.4632C60.6885 11.4097 60.7358 11.3561 60.7799 11.3025C60.8461 11.2206 60.8807 11.1418 60.8807 11.063C60.8807 11.0063 60.8618 10.9465 60.824 10.8866C60.7705 10.811 60.698 10.7448 60.6129 10.6818C60.5152 10.6219 60.4081 10.5904 60.2883 10.5904H57.1593C56.9702 10.5904 56.8631 10.6692 56.8379 10.8204V10.8677C56.8379 10.9307 56.8599 10.9937 56.9009 11.063C56.9576 11.1355 57.0301 11.1985 57.1246 11.2458C57.2349 11.3151 57.3704 11.3781 57.528 11.4412C57.6887 11.501 57.8494 11.5735 58.0101 11.6523C58.3126 11.8382 58.5237 12.021 58.6466 12.2069L61.8607 17.5606ZM74.8212 23.2199V23.617C74.8212 23.8186 74.9504 23.9226 75.2087 23.9226H77.4523C77.7359 23.9226 77.8777 23.7966 77.8777 23.5414C77.8777 23.3082 77.7233 23.138 77.4145 23.0309C77.1057 22.9237 76.9544 22.7095 76.9544 22.3881V15.2445C76.9544 15.0901 76.8379 14.9735 76.611 14.8916C76.5574 14.8696 76.4944 14.857 76.4282 14.857C76.2927 14.857 76.1824 14.9074 76.1037 15.0114C76.0595 15.0744 75.9808 15.1532 75.8642 15.254C75.839 15.2697 75.8075 15.2792 75.7728 15.2792C75.7287 15.2792 75.6814 15.2697 75.6341 15.254C75.4419 15.191 75.2844 15.1374 75.1615 15.087C75.1489 15.0744 75.1142 15.0586 75.0512 15.0397C74.4619 14.8506 73.9546 14.7435 73.5387 14.7278H73.4819C73.3591 14.7278 73.2299 14.7498 73.0944 14.8002C72.5965 14.9861 72.0986 15.1689 71.6039 15.3548C71.1092 15.5376 70.6113 15.7235 70.1134 15.9094C69.9275 15.9882 69.7574 16.0796 69.6061 16.1867C69.1933 16.4987 68.9034 16.8012 68.7364 17.0911C68.3929 17.6331 68.1787 18.175 68.0999 18.7233C68.0558 19.0321 68.0337 19.3473 68.0337 19.675C68.0337 19.9208 68.0463 20.1728 68.0715 20.4312C68.1629 21.4459 68.5473 22.3124 69.2154 23.0246C69.8803 23.7273 70.6869 24.1022 71.6354 24.1527H72.023C72.1837 24.1527 72.3759 24.1117 72.6059 24.0329L74.8212 23.2199ZM74.8212 16.7035V22.2778C74.7235 22.3156 74.5218 22.3912 74.2193 22.5046C73.9199 22.6181 73.6962 22.7 73.5544 22.7504C73.3906 22.804 73.2519 22.8387 73.1416 22.8513C73.0723 22.8576 73.0061 22.8607 72.9368 22.8607C72.7225 22.8607 72.5083 22.8292 72.3003 22.7662C71.7331 22.6149 71.2604 22.2683 70.8791 21.7326C70.4853 21.2032 70.2552 20.5132 70.1859 19.6561C70.1733 19.5143 70.167 19.3788 70.167 19.2496C70.167 18.8305 70.2206 18.4082 70.3246 17.9765C70.4474 17.4282 70.6869 16.965 71.0462 16.5806C71.1123 16.5081 71.2037 16.4483 71.3203 16.3978C71.544 16.3191 71.7646 16.2371 71.982 16.1521C72.1995 16.0701 72.42 15.9882 72.6406 15.9094C72.7414 15.8716 72.8328 15.8527 72.9179 15.8527H72.9463C73.2299 15.8653 73.5639 15.963 73.9483 16.1489C74.3327 16.3317 74.6226 16.5176 74.8212 16.7035ZM81.7536 22.1864V16.609C81.8449 16.5743 82.0435 16.4987 82.3428 16.3884C82.6453 16.2781 82.869 16.193 83.0077 16.1394C83.1684 16.0827 83.307 16.0512 83.4236 16.0386C83.4804 16.0323 83.5371 16.0292 83.6001 16.0292C83.8207 16.0292 84.0475 16.0575 84.2744 16.1205C84.8385 16.2875 85.3206 16.6373 85.7145 17.173C86.0958 17.6961 86.3195 18.383 86.3888 19.2307C86.3951 19.3473 86.3983 19.4701 86.3983 19.6025C86.3983 20.0373 86.3478 20.4785 86.2502 20.9196C86.121 21.4679 85.8815 21.9311 85.5286 22.3061C85.4435 22.3912 85.3521 22.4542 85.2513 22.4889C85.0307 22.5771 84.8133 22.659 84.5958 22.7347C84.3816 22.8135 84.1578 22.8922 83.9215 22.9805C83.8238 23.0151 83.7419 23.034 83.6726 23.034H83.619C83.3291 23.0277 82.9951 22.9332 82.6107 22.7504C82.2294 22.5645 81.9458 22.3755 81.7536 22.1864ZM81.4038 23.8029C81.4227 23.8123 81.4605 23.8313 81.5235 23.8565C82.1128 24.0361 82.6138 24.1338 83.0266 24.1527H83.0739C83.1968 24.1527 83.3291 24.1275 83.4709 24.077C83.9688 23.9006 84.4635 23.7178 84.9582 23.5351C85.4498 23.3491 85.9414 23.1664 86.4329 22.9899C86.6314 22.9143 86.8079 22.8198 86.9686 22.7032C87.3562 22.407 87.6461 22.1045 87.8383 21.7988C88.1755 21.2631 88.3834 20.7211 88.4654 20.1728C88.5095 19.864 88.5284 19.5489 88.5284 19.2212C88.5284 18.9691 88.5158 18.7139 88.4937 18.4555C88.3929 17.4471 88.0179 16.5837 87.3656 15.8716C86.6945 15.1563 85.8878 14.775 84.9393 14.7278C84.8637 14.7278 84.7944 14.7246 84.7313 14.7215C84.6652 14.7183 84.599 14.7183 84.5328 14.7183C84.3595 14.7309 84.1736 14.7719 83.9688 14.8475L81.7536 15.6668V9.95386C81.1454 10.1555 80.6475 10.3099 80.2631 10.4108C79.8787 10.5116 79.4942 10.5715 79.1129 10.5904C78.8356 10.5904 78.697 10.7164 78.697 10.9685C78.697 11.208 78.8514 11.3845 79.1602 11.4947C79.4659 11.605 79.6203 11.8193 79.6203 12.1313V23.6359C79.6203 23.7903 79.7337 23.9069 79.9637 23.9857C80.0173 24.0109 80.0803 24.0235 80.1465 24.0235C80.282 24.0235 80.386 23.9699 80.4616 23.8659C80.5057 23.8155 80.5877 23.7399 80.7105 23.6359C80.7295 23.617 80.7547 23.6075 80.783 23.6075C80.8271 23.6075 80.8776 23.617 80.9311 23.6359C81.1233 23.6958 81.2809 23.7525 81.4038 23.8029ZM92.628 22.3881V9.95386C92.0261 10.1555 91.5314 10.3099 91.147 10.4108C90.7625 10.5116 90.3781 10.5715 89.9968 10.5904C89.7195 10.5904 89.5809 10.7164 89.5809 10.9685C89.5809 11.208 89.7353 11.3845 90.0441 11.4947C90.3529 11.605 90.5041 11.8193 90.5041 12.1313V22.3881C90.5041 22.7095 90.3529 22.9237 90.0441 23.0309C89.7353 23.138 89.5809 23.3082 89.5809 23.5414C89.5809 23.7966 89.7227 23.9226 90.0063 23.9226H93.1353C93.4126 23.9226 93.5512 23.7966 93.5512 23.5414C93.5512 23.3082 93.3968 23.138 93.0912 23.0309C92.7824 22.9237 92.628 22.7095 92.628 22.3881ZM104.215 22.3881V14.3024C103.606 14.504 103.108 14.6584 102.724 14.7624C102.34 14.8696 101.955 14.9294 101.574 14.9483C101.297 14.9483 101.158 15.0744 101.158 15.3265C101.158 15.5659 101.312 15.7424 101.621 15.8527C101.927 15.963 102.081 16.1741 102.081 16.4798V22.3597L101.98 22.3975C101.911 22.4227 101.861 22.4416 101.823 22.4542C101.681 22.5078 101.508 22.5771 101.297 22.6559C101.089 22.7378 100.925 22.7945 100.808 22.8324C100.474 22.9426 100.178 22.9994 99.9133 22.9994C99.469 22.9994 99.0909 22.845 98.7757 22.5362C98.2527 22.032 97.9911 21.1245 97.9911 19.8136V14.3024C97.383 14.504 96.8851 14.6584 96.5007 14.7624C96.1162 14.8696 95.7349 14.9294 95.3505 14.9483C95.0764 14.9483 94.9377 15.0744 94.9377 15.3265C94.9377 15.5659 95.089 15.7424 95.3978 15.8527C95.7066 15.963 95.861 16.1741 95.861 16.4798V19.8136C95.861 21.7515 96.2612 23.0246 97.0584 23.6359C97.5657 24.0109 98.1014 24.1968 98.6749 24.1968C98.76 24.1968 98.8545 24.1968 98.9522 24.1905C99.573 24.1275 100.178 23.9983 100.761 23.8029C100.994 23.721 101.246 23.6296 101.511 23.5287C101.776 23.4279 101.965 23.3554 102.081 23.3113V23.617C102.081 23.8186 102.21 23.9226 102.469 23.9226H104.712C104.996 23.9226 105.138 23.7966 105.138 23.5414C105.138 23.3082 104.983 23.138 104.675 23.0309C104.369 22.9237 104.215 22.7095 104.215 22.3881Z" fill="white"/>
<path d="M59.885 38.7068C59.9354 38.669 59.9606 38.6501 59.9669 38.6501C59.9669 38.6564 59.9543 38.6721 59.9323 38.6973L63.2724 41.9461C63.6222 42.2896 64.0129 42.548 64.4446 42.7213C64.6368 42.8 64.8385 42.841 65.0559 42.841C65.3679 42.841 65.7051 42.7622 66.0611 42.6015L66.6504 42.3242C66.7922 42.2612 66.8647 42.1635 66.8647 42.028C66.8647 41.9902 66.8552 41.943 66.8363 41.8799C66.7512 41.7035 66.5937 41.6121 66.3668 41.6121C66.2975 41.6121 66.2344 41.6215 66.1714 41.6404C66.121 41.6467 66.0769 41.6499 66.0328 41.6499C65.9288 41.6499 65.8216 41.6247 65.7114 41.5774C65.538 41.4955 65.1284 41.1426 64.4824 40.5155L61.407 37.5157C61.9868 37.0588 62.721 36.4979 63.6159 35.833C63.7545 35.729 63.8995 35.6786 64.0476 35.6786C64.1768 35.6786 64.3154 35.7132 64.4635 35.7889L65.1662 36.1481L65.6925 34.9664C65.7208 34.916 65.7366 34.8656 65.7366 34.8089C65.7366 34.6923 65.6704 34.5883 65.5349 34.4969L64.8417 34.0715C64.6936 33.9896 64.5423 33.9518 64.3911 33.9518C64.1925 33.9518 63.9909 34.0117 63.7797 34.1346C63.4835 34.3205 63.1432 34.5694 62.7556 34.8845L59.885 37.1817V28.929C59.2831 29.1306 58.7884 29.285 58.404 29.3859C58.0195 29.4867 57.6351 29.5466 57.2538 29.5655C56.9765 29.5655 56.8379 29.6915 56.8379 29.9436C56.8379 30.1831 56.9923 30.3596 57.3011 30.4698C57.6068 30.5801 57.7612 30.7944 57.7612 31.1064V41.3632C57.7612 41.6846 57.6068 41.8988 57.3011 42.006C56.9923 42.1131 56.8379 42.2833 56.8379 42.5164C56.8379 42.7717 56.9797 42.8977 57.2633 42.8977H60.3923C60.6696 42.8977 60.8083 42.7717 60.8083 42.5164C60.8083 42.2833 60.6539 42.1131 60.3451 42.006C60.0394 41.8988 59.885 41.6846 59.885 41.3632V38.7068ZM72.1995 33.7029H72.1616C71.9348 33.7029 71.6512 33.7596 71.314 33.8762C70.9863 33.9928 70.6901 34.103 70.4191 34.2007C69.9622 34.3677 69.6124 34.4938 69.3666 34.5789C69.1208 34.6639 68.9255 34.7711 68.7837 34.9003C67.7375 35.855 67.2113 37.0273 67.205 38.42V38.4452C67.205 39.7151 67.665 40.8117 68.582 41.7413C69.4864 42.6646 70.5672 43.1278 71.8213 43.1278H71.9694C73.3181 43.0899 74.4556 42.6204 75.3852 41.7161C76.2896 40.8275 76.7433 39.7498 76.7433 38.4736V38.42C76.7244 37.1564 76.2801 36.0693 75.4136 35.1524C74.5439 34.2354 73.4725 33.7501 72.1995 33.7029ZM71.9883 34.6891C72.6658 34.727 73.2582 35.1177 73.7687 35.8677C74.2792 36.6145 74.5344 37.5125 74.5344 38.5587C74.5344 39.6048 74.2729 40.4777 73.7498 41.1804C73.2834 41.8138 72.7351 42.1289 72.1081 42.1289H71.9883C71.3045 42.1005 70.709 41.7098 70.2017 40.963C69.6943 40.2162 69.4391 39.3181 69.4391 38.2719C69.4391 37.2258 69.7006 36.3466 70.2237 35.6408C70.6995 35.0074 71.251 34.6891 71.8875 34.6891H71.9883ZM80.5814 35.2248C80.553 35.1618 80.5372 35.1051 80.5372 35.0484C80.5372 35.0011 80.5435 34.957 80.553 34.9192C80.5656 34.8845 80.6664 34.7805 80.8492 34.6167C80.9469 34.5221 80.9973 34.4276 80.9973 34.3299C80.9973 34.3047 80.991 34.2701 80.9784 34.2291C80.9469 34.1598 80.8902 34.0936 80.8051 34.0243C80.6979 33.9644 80.6003 33.9329 80.5089 33.9329H77.4807C77.3326 33.9329 77.2254 33.9865 77.1561 34.0999C77.1435 34.1472 77.1372 34.1881 77.1372 34.2196C77.1372 34.248 77.1435 34.289 77.1561 34.3394C77.2128 34.4371 77.2727 34.5064 77.342 34.5505C77.4208 34.6072 77.5279 34.6639 77.6603 34.7207C77.7926 34.7805 77.9155 34.8467 78.0258 34.9192C78.1897 35.0326 78.3189 35.1839 78.4039 35.3824L81.4227 42.5732C81.4353 42.6047 81.4574 42.6645 81.4857 42.7528C81.5172 42.8442 81.5487 42.904 81.5802 42.9324C81.6401 43.0269 81.7378 43.071 81.8733 43.071H82.6516C82.7619 43.071 82.8564 43.0332 82.9352 42.9513C82.9793 42.8977 83.0203 42.8316 83.055 42.7591L85.8909 36.4254C86.0863 36.0252 86.2344 35.6786 86.3321 35.3824C86.3762 35.2469 86.3983 35.1271 86.3983 35.0232C86.3983 34.8183 86.3289 34.645 86.1966 34.5064L85.6767 33.9802C85.579 33.8793 85.4718 33.832 85.3553 33.832C85.2513 33.832 85.1599 33.8699 85.0874 33.9518L84.1263 34.6986L84.5328 35.187C84.6809 35.3603 84.7534 35.5368 84.7534 35.7132C84.7534 35.8172 84.7313 35.9275 84.6809 36.0378L82.7808 40.5974L80.5814 35.2248ZM89.4359 29.6033C88.6103 29.6033 88.1975 30.0035 88.1975 30.8039C88.1975 31.6105 88.6103 32.0107 89.4359 32.0107C90.2615 32.0107 90.6711 31.6105 90.6711 30.8039C90.6711 30.0035 90.2615 29.6033 89.4359 29.6033ZM90.4978 41.3632V33.2775C89.8928 33.4791 89.4013 33.6335 89.0168 33.7375C88.6292 33.8447 88.248 33.9045 87.8667 33.9234C87.5894 33.9234 87.4507 34.0495 87.4507 34.3016C87.4507 34.541 87.6051 34.7175 87.9108 34.8278C88.2196 34.9381 88.374 35.1492 88.374 35.4549V41.3632C88.374 41.6846 88.2196 41.8988 87.9108 42.006C87.6051 42.1131 87.4507 42.2833 87.4507 42.5164C87.4507 42.7717 87.5925 42.8977 87.8761 42.8977H91.0052C91.2825 42.8977 91.4211 42.7717 91.4211 42.5164C91.4211 42.2833 91.2667 42.1131 90.9579 42.006C90.6522 41.8988 90.4978 41.6846 90.4978 41.3632ZM97.2349 33.7029C96.362 33.7375 95.5868 33.9486 94.9157 34.3331C94.2413 34.7175 93.7182 35.2091 93.3496 35.8078C92.9998 36.3655 92.7792 36.9296 92.6941 37.4968C92.65 37.815 92.6311 38.1459 92.6311 38.4831C92.6311 38.7477 92.6406 39.0156 92.6658 39.2866C92.7761 40.5124 93.2424 41.4577 94.0649 42.1226C94.8873 42.7843 95.902 43.1215 97.1057 43.1278C97.5878 43.1278 98.0983 43.0647 98.6434 42.9387C99.1885 42.8127 99.6454 42.5826 100.014 42.2518C100.162 42.1226 100.285 41.9524 100.383 41.7413C100.471 41.5585 100.512 41.4199 100.512 41.3285C100.512 41.2466 100.487 41.1804 100.43 41.1237C100.358 41.0732 100.276 41.0512 100.191 41.0512C100.024 41.0512 99.7431 41.1552 99.3493 41.3632C98.7159 41.7161 98.1455 41.8894 97.6414 41.8894C97.5311 41.8894 97.4271 41.8799 97.3294 41.861C96.6897 41.7696 96.0973 41.3631 95.5553 40.6447C95.1425 40.0838 94.9062 39.3622 94.8463 38.4736C94.8274 38.2845 94.818 38.0986 94.818 37.919C94.818 37.3865 94.8936 36.8981 95.048 36.4632C95.1961 36.0378 95.4198 35.6786 95.7223 35.3824C96.0469 35.0673 96.5133 34.8971 97.1151 34.8656H97.3294C97.8462 34.8656 98.2779 34.9696 98.6308 35.1776C98.9932 35.395 99.2894 35.7511 99.5163 36.2489C99.595 36.4412 99.7211 36.5451 99.8944 36.564H99.9322C100.134 36.564 100.25 36.4695 100.282 36.2773L100.449 34.6167C99.5005 34.0054 98.4985 33.7029 97.4397 33.7029H97.2349ZM104.233 41.3632V35.5021C104.259 35.4895 104.341 35.458 104.482 35.4107C104.637 35.3477 104.816 35.2784 105.024 35.2028C105.229 35.124 105.399 35.061 105.535 35.0137C105.856 34.9066 106.149 34.8562 106.414 34.8562C106.855 34.8562 107.233 35.0106 107.548 35.3162C108.071 35.8267 108.333 36.7374 108.333 38.0419V42.5921C108.333 42.7937 108.462 42.8977 108.721 42.8977H110.964C111.241 42.8977 111.38 42.7717 111.38 42.5164C111.38 42.2833 111.226 42.1131 110.917 42.006C110.611 41.8988 110.457 41.6846 110.457 41.3632V38.0419C110.457 36.1071 110.06 34.8372 109.266 34.2291C108.755 33.8415 108.21 33.6461 107.63 33.6461C107.545 33.6461 107.46 33.6493 107.372 33.6556C106.745 33.7155 106.137 33.851 105.544 34.0621C105.311 34.1409 105.065 34.2322 104.807 34.3299C104.549 34.4276 104.356 34.5001 104.233 34.541V28.929C103.632 29.1306 103.137 29.285 102.752 29.3859C102.368 29.4867 101.984 29.5466 101.602 29.5655C101.325 29.5655 101.186 29.6915 101.186 29.9436C101.186 30.1831 101.341 30.3596 101.65 30.4698C101.955 30.5801 102.11 30.7944 102.11 31.1064V41.3632C102.11 41.6846 101.955 41.8988 101.65 42.006C101.341 42.1131 101.186 42.2833 101.186 42.5164C101.186 42.7717 101.328 42.8977 101.612 42.8977H104.741C105.018 42.8977 105.157 42.7717 105.157 42.5164C105.157 42.2833 105.002 42.1131 104.697 42.006C104.388 41.8988 104.233 41.6846 104.233 41.3632Z" fill="white"/>
</g>
<defs>
<filter id="filter0_d_38_511" x="0" y="0" width="115.38" height="61.0789" filterUnits="userSpaceOnUse" color-interpolation-filters="sRGB">
<feFlood flood-opacity="0" result="BackgroundImageFix"/>
<feColorMatrix in="SourceAlpha" type="matrix" values="0 0 0 0 0 0 0 0 0 0 0 0 0 0 0 0 0 0 127 0" result="hardAlpha"/>
<feOffset dy="4"/>
<feGaussianBlur stdDeviation="2"/>
<feComposite in2="hardAlpha" operator="out"/>
<feColorMatrix type="matrix" values="0 0 0 0 0 0 0 0 0 0 0 0 0 0 0 0 0 0 0.25 0"/>
<feBlend mode="normal" in2="BackgroundImageFix" result="effect1_dropShadow_38_511"/>
<feBlend mode="normal" in="SourceGraphic" in2="effect1_dropShadow_38_511" result="shape"/>
</filter>
</defs>
</svg>
