<svg width="186" height="96" viewBox="0 0 186 96" fill="none" xmlns="http://www.w3.org/2000/svg">
<g filter="url(#filter0_d_29_23)">
<path d="M23.5495 50.4022L24.8796 49.635L36.4326 42.9414L36.4554 42.9537L58.2444 30.3792L58.2391 19.6057L4.90479 50.3724L70.4032 87.682L79.4187 82.4824L62.7267 72.8971L23.5495 50.4022Z" fill="#0B61A8"/>
<path d="M60.0849 31.441L60.0963 56.4216L69.3503 61.6921L69.3213 0L4 37.6796L4.00526 48.7643L60.0779 16.4211L60.0849 31.441Z" fill="#0B61A8"/>
<path d="M71.1907 64.8602L60.0972 58.5401L60.0963 58.5462L58.1033 57.4037L36.4599 45.0739L27.2349 50.3988L80.3491 80.8955L80.3131 5.26717L71.1609 0.0123901L71.1907 64.8602Z" fill="#0B61A8"/>
<path d="M99.579 29.006C99.8392 29.4328 99.9746 29.9221 99.9746 30.4687V36.9805C99.9746 37.5114 99.7195 37.8654 99.2094 38.0424C98.7045 38.2193 98.4494 38.5004 98.4494 38.8856C98.4494 39.3072 98.6837 39.5155 99.1469 39.5155H104.321C104.784 39.5155 105.018 39.3072 105.018 38.8856C105.018 38.5004 104.769 38.2193 104.259 38.0424C103.748 37.8654 103.493 37.5114 103.493 36.9805V31.6294C103.493 31.1922 103.519 30.7393 103.571 30.2657C103.623 29.792 103.728 29.4328 103.894 29.1882L107.949 23.2698C108.548 22.4057 109.115 21.6978 109.641 21.1356C110.036 20.7296 110.234 20.3184 110.234 19.9019C110.234 19.6677 110.172 19.4335 110.036 19.1992L109.11 17.6429C108.922 17.3722 108.688 17.2316 108.407 17.2316C108.282 17.2316 108.157 17.2577 108.027 17.3097L105.555 18.3924L106.21 19.7041C106.424 20.1414 106.528 20.4901 106.528 20.7556C106.528 20.7973 106.523 20.8337 106.518 20.8649C106.476 21.1564 106.315 21.5156 106.044 21.932L102.426 27.4184L97.627 19.8082C97.4916 19.6157 97.424 19.4335 97.424 19.2617V19.1836C97.4344 19.1055 97.4812 19.0223 97.5645 18.9338C97.6426 18.8453 97.7207 18.7568 97.7936 18.6683C97.9029 18.533 97.9601 18.4028 97.9601 18.2727C97.9601 18.179 97.9289 18.0801 97.8664 17.9812C97.7779 17.8563 97.6582 17.747 97.5177 17.6429C97.3563 17.544 97.1793 17.4919 96.9815 17.4919H91.8127C91.5004 17.4919 91.3234 17.622 91.2817 17.8719V17.95C91.2817 18.0541 91.3182 18.1582 91.3858 18.2727C91.4795 18.3924 91.5993 18.4965 91.7554 18.5746C91.9376 18.6891 92.1614 18.7932 92.4217 18.8973C92.6872 18.9962 92.9526 19.1159 93.2181 19.2461C93.7178 19.5532 94.0666 19.8551 94.2696 20.1622L99.579 29.006ZM120.988 38.3547V39.0105C120.988 39.3437 121.202 39.5155 121.629 39.5155H125.335C125.803 39.5155 126.037 39.3072 126.037 38.8856C126.037 38.5004 125.782 38.2193 125.272 38.0424C124.762 37.8654 124.512 37.5114 124.512 36.9805V25.1801C124.512 24.925 124.32 24.7324 123.945 24.5971C123.856 24.5607 123.752 24.5399 123.643 24.5399C123.419 24.5399 123.237 24.6231 123.107 24.7949C123.034 24.899 122.904 25.0292 122.711 25.1957C122.67 25.2217 122.618 25.2374 122.56 25.2374C122.487 25.2374 122.409 25.2217 122.331 25.1957C122.014 25.0916 121.753 25.0031 121.55 24.9198C121.53 24.899 121.472 24.873 121.368 24.8418C120.395 24.5294 119.557 24.3525 118.87 24.3264H118.776C118.573 24.3264 118.36 24.3629 118.136 24.4462C117.313 24.7533 116.491 25.0552 115.674 25.3623C114.856 25.6642 114.034 25.9713 113.212 26.2784C112.904 26.4086 112.623 26.5595 112.374 26.7365C111.692 27.2518 111.213 27.7515 110.937 28.2304C110.37 29.1257 110.016 30.021 109.885 30.9267C109.813 31.4369 109.776 31.9574 109.776 32.4987C109.776 32.9047 109.797 33.3212 109.839 33.748C109.99 35.4241 110.625 36.8556 111.728 38.0319C112.826 39.1927 114.159 39.8122 115.726 39.8954H116.366C116.631 39.8954 116.949 39.8278 117.329 39.6976L120.988 38.3547ZM120.988 27.5901V36.7983C120.827 36.8608 120.494 36.9857 119.994 37.1731C119.5 37.3605 119.13 37.4958 118.896 37.5791C118.625 37.6676 118.396 37.7248 118.214 37.7457C118.099 37.7561 117.99 37.7613 117.876 37.7613C117.522 37.7613 117.168 37.7092 116.824 37.6051C115.887 37.3553 115.106 36.7827 114.476 35.8978C113.826 35.0233 113.446 33.8833 113.331 32.4675C113.311 32.2333 113.3 32.0094 113.3 31.796C113.3 31.1037 113.389 30.4062 113.56 29.6931C113.763 28.7874 114.159 28.0222 114.752 27.3871C114.862 27.2674 115.013 27.1685 115.205 27.0852C115.575 26.9551 115.939 26.8198 116.298 26.6792C116.658 26.5439 117.022 26.4086 117.386 26.2784C117.553 26.216 117.704 26.1847 117.844 26.1847H117.891C118.36 26.2055 118.911 26.3669 119.546 26.674C120.181 26.9759 120.66 27.283 120.988 27.5901ZM132.44 36.6473V27.434C132.591 27.3767 132.919 27.2518 133.413 27.0696C133.913 26.8874 134.283 26.7469 134.512 26.6584C134.777 26.5647 135.006 26.5127 135.199 26.4918C135.292 26.4814 135.386 26.4762 135.49 26.4762C135.855 26.4762 136.229 26.5231 136.604 26.6272C137.536 26.9031 138.332 27.4808 138.983 28.3657C139.613 29.2298 139.982 30.3646 140.097 31.7648C140.107 31.9574 140.113 32.1604 140.113 32.379C140.113 33.0973 140.029 33.8261 139.868 34.5548C139.654 35.4605 139.259 36.2257 138.676 36.8451C138.535 36.9857 138.384 37.0898 138.218 37.1471C137.853 37.2928 137.494 37.4281 137.135 37.5531C136.781 37.6832 136.412 37.8133 136.021 37.9591C135.86 38.0163 135.724 38.0476 135.61 38.0476H135.521C135.043 38.0372 134.491 37.881 133.856 37.5791C133.226 37.272 132.757 36.9597 132.44 36.6473ZM131.862 39.3177C131.893 39.3333 131.956 39.3645 132.06 39.4061C133.033 39.7028 133.861 39.8642 134.543 39.8954H134.621C134.824 39.8954 135.043 39.8538 135.277 39.7705C136.099 39.479 136.916 39.1771 137.734 38.8752C138.546 38.5681 139.358 38.2662 140.17 37.9747C140.498 37.8498 140.789 37.6936 141.055 37.501C141.695 37.0117 142.174 36.512 142.491 36.0071C143.048 35.1222 143.392 34.2269 143.527 33.3212C143.6 32.811 143.631 32.2905 143.631 31.7492C143.631 31.3327 143.61 30.9111 143.574 30.4843C143.407 28.8186 142.788 27.3923 141.711 26.216C140.602 25.0344 139.269 24.4045 137.702 24.3264C137.578 24.3264 137.463 24.3212 137.359 24.316C137.25 24.3108 137.14 24.3108 137.031 24.3108C136.745 24.3316 136.438 24.3993 136.099 24.5242L132.44 25.8776V16.4404C131.435 16.7736 130.613 17.0286 129.978 17.1952C129.343 17.3618 128.708 17.4607 128.078 17.4919C127.62 17.4919 127.391 17.7001 127.391 18.1165C127.391 18.5121 127.646 18.8036 128.156 18.9858C128.661 19.168 128.916 19.522 128.916 20.0373V39.0418C128.916 39.2968 129.103 39.4894 129.483 39.6196C129.572 39.6612 129.676 39.682 129.785 39.682C130.009 39.682 130.181 39.5935 130.306 39.4218C130.379 39.3385 130.514 39.2136 130.717 39.0418C130.748 39.0105 130.79 38.9949 130.837 38.9949C130.91 38.9949 130.993 39.0105 131.081 39.0418C131.399 39.1407 131.659 39.2344 131.862 39.3177ZM150.403 36.9805V16.4404C149.409 16.7736 148.592 17.0286 147.957 17.1952C147.322 17.3618 146.687 17.4607 146.057 17.4919C145.599 17.4919 145.37 17.7001 145.37 18.1165C145.37 18.5121 145.625 18.8036 146.135 18.9858C146.645 19.168 146.895 19.522 146.895 20.0373V36.9805C146.895 37.5114 146.645 37.8654 146.135 38.0424C145.625 38.2193 145.37 38.5004 145.37 38.8856C145.37 39.3072 145.604 39.5155 146.073 39.5155H151.241C151.699 39.5155 151.929 39.3072 151.929 38.8856C151.929 38.5004 151.673 38.2193 151.169 38.0424C150.658 37.8654 150.403 37.5114 150.403 36.9805ZM169.543 36.9805V23.6237C168.539 23.9569 167.716 24.2119 167.081 24.3837C166.446 24.5607 165.811 24.6596 165.181 24.6908C164.723 24.6908 164.494 24.899 164.494 25.3154C164.494 25.711 164.749 26.0025 165.259 26.1847C165.764 26.3669 166.019 26.7157 166.019 27.2206V36.9336L165.853 36.9961C165.738 37.0377 165.655 37.069 165.592 37.0898C165.358 37.1783 165.072 37.2928 164.723 37.4229C164.38 37.5583 164.109 37.652 163.916 37.7144C163.365 37.8966 162.875 37.9903 162.438 37.9903C161.704 37.9903 161.079 37.7352 160.559 37.2251C159.695 36.3923 159.263 34.8932 159.263 32.7278V23.6237C158.258 23.9569 157.436 24.2119 156.801 24.3837C156.166 24.5607 155.536 24.6596 154.901 24.6908C154.448 24.6908 154.219 24.899 154.219 25.3154C154.219 25.711 154.469 26.0025 154.979 26.1847C155.489 26.3669 155.744 26.7157 155.744 27.2206V32.7278C155.744 35.929 156.405 38.0319 157.722 39.0418C158.56 39.6612 159.445 39.9683 160.392 39.9683C160.533 39.9683 160.689 39.9683 160.85 39.9579C161.876 39.8538 162.875 39.6404 163.838 39.3177C164.223 39.1823 164.64 39.0314 165.077 38.8648C165.514 38.6982 165.827 38.5785 166.019 38.5056V39.0105C166.019 39.3437 166.233 39.5155 166.659 39.5155H170.366C170.834 39.5155 171.068 39.3072 171.068 38.8856C171.068 38.5004 170.813 38.2193 170.303 38.0424C169.798 37.8654 169.543 37.5114 169.543 36.9805Z" fill="#030303"/>
<path d="M96.3152 63.9386C96.3985 63.8762 96.4402 63.8449 96.4506 63.8449C96.4506 63.8553 96.4298 63.8814 96.3933 63.923L101.911 69.2896C102.489 69.857 103.134 70.2839 103.847 70.5701C104.165 70.7003 104.498 70.768 104.857 70.768C105.372 70.768 105.929 70.6378 106.518 70.3723L107.491 69.9143C107.725 69.8102 107.845 69.6488 107.845 69.425C107.845 69.3625 107.829 69.2844 107.798 69.1803C107.658 68.8888 107.397 68.7379 107.023 68.7379C106.908 68.7379 106.804 68.7535 106.7 68.7847C106.617 68.7951 106.544 68.8004 106.471 68.8004C106.299 68.8004 106.122 68.7587 105.94 68.6806C105.654 68.5453 104.977 67.9623 103.91 66.9264L98.8294 61.971C99.7872 61.2163 101 60.2897 102.478 59.1914C102.707 59.0196 102.947 58.9363 103.191 58.9363C103.405 58.9363 103.634 58.9936 103.879 59.1185L105.039 59.7119L105.909 57.7599C105.955 57.6767 105.981 57.5934 105.981 57.4997C105.981 57.3071 105.872 57.1353 105.648 56.9844L104.503 56.2816C104.259 56.1463 104.009 56.0838 103.759 56.0838C103.431 56.0838 103.098 56.1827 102.749 56.3858C102.26 56.6929 101.698 57.1041 101.057 57.6246L96.3152 61.4193V47.7866C95.321 48.1198 94.5038 48.3748 93.8688 48.5414C93.2337 48.708 92.5987 48.8069 91.9688 48.8381C91.5108 48.8381 91.2817 49.0463 91.2817 49.4627C91.2817 49.8583 91.5368 50.1498 92.0469 50.332C92.5518 50.5142 92.8069 50.8681 92.8069 51.3835V68.3267C92.8069 68.8576 92.5518 69.2116 92.0469 69.3885C91.5368 69.5655 91.2817 69.8466 91.2817 70.2318C91.2817 70.6534 91.516 70.8616 91.9845 70.8616H97.1533C97.6114 70.8616 97.8404 70.6534 97.8404 70.2318C97.8404 69.8466 97.5853 69.5655 97.0752 69.3885C96.5703 69.2116 96.3152 68.8576 96.3152 68.3267V63.9386ZM116.658 55.6726H116.595C116.22 55.6726 115.752 55.7663 115.195 55.9589C114.653 56.1515 114.164 56.3337 113.717 56.4951C112.962 56.7709 112.384 56.9792 111.978 57.1197C111.572 57.2602 111.249 57.4372 111.015 57.6506C109.287 59.2278 108.418 61.1642 108.407 63.4649V63.5066C108.407 65.6043 109.167 67.4157 110.682 68.9513C112.176 70.4765 113.961 71.2416 116.033 71.2416H116.278C118.505 71.1792 120.384 70.4036 121.92 68.9097C123.414 67.4418 124.164 65.6616 124.164 63.5534V63.4649C124.132 61.3776 123.398 59.5818 121.967 58.0671C120.53 56.5523 118.76 55.7507 116.658 55.6726ZM116.309 57.3019C117.428 57.3643 118.406 58.0098 119.25 59.2487C120.093 60.4823 120.515 61.9658 120.515 63.694C120.515 65.4221 120.083 66.864 119.219 68.0248C118.448 69.071 117.542 69.5916 116.507 69.5916H116.309C115.179 69.5447 114.195 68.8993 113.357 67.6656C112.519 66.4319 112.098 64.9484 112.098 63.2203C112.098 61.4921 112.53 60.0399 113.394 58.8739C114.18 57.8276 115.091 57.3019 116.142 57.3019H116.309ZM130.504 58.1868C130.457 58.0827 130.431 57.989 130.431 57.8953C130.431 57.8172 130.441 57.7443 130.457 57.6819C130.478 57.6246 130.644 57.4528 130.946 57.1822C131.107 57.026 131.191 56.8698 131.191 56.7085C131.191 56.6668 131.18 56.6096 131.159 56.5419C131.107 56.4274 131.014 56.3181 130.873 56.2036C130.696 56.1047 130.535 56.0526 130.384 56.0526H125.382C125.137 56.0526 124.96 56.1411 124.845 56.3285C124.825 56.4066 124.814 56.4742 124.814 56.5263C124.814 56.5731 124.825 56.6408 124.845 56.7241C124.939 56.8855 125.038 57 125.153 57.0728C125.283 57.1665 125.46 57.2602 125.678 57.3539C125.897 57.4528 126.1 57.5621 126.282 57.6819C126.553 57.8693 126.766 58.1191 126.907 58.447L131.893 70.3255C131.914 70.3776 131.951 70.4765 131.997 70.6222C132.05 70.7732 132.102 70.8721 132.154 70.9189C132.253 71.0751 132.414 71.1479 132.638 71.1479H133.923C134.106 71.1479 134.262 71.0855 134.392 70.9501C134.465 70.8616 134.532 70.7523 134.59 70.6326L139.274 60.17C139.597 59.5089 139.842 58.9363 140.003 58.447C140.076 58.2232 140.113 58.0254 140.113 57.8536C140.113 57.5153 139.998 57.229 139.779 57L138.921 56.1307C138.759 55.9641 138.582 55.886 138.39 55.886C138.218 55.886 138.067 55.9485 137.947 56.0838L136.36 57.3175L137.031 58.1243C137.276 58.4106 137.395 58.7021 137.395 58.9936C137.395 59.1654 137.359 59.3476 137.276 59.5297L134.137 67.0618L130.504 58.1868ZM145.13 48.9006C143.767 48.9006 143.085 49.5616 143.085 50.8838C143.085 52.2163 143.767 52.8774 145.13 52.8774C146.494 52.8774 147.171 52.2163 147.171 50.8838C147.171 49.5616 146.494 48.9006 145.13 48.9006ZM146.885 68.3267V54.9699C145.885 55.3031 145.073 55.5581 144.438 55.7299C143.798 55.9069 143.168 56.0058 142.538 56.037C142.08 56.037 141.851 56.2452 141.851 56.6616C141.851 57.0572 142.106 57.3487 142.611 57.5309C143.121 57.7131 143.376 58.0619 143.376 58.5668V68.3267C143.376 68.8576 143.121 69.2116 142.611 69.3885C142.106 69.5655 141.851 69.8466 141.851 70.2318C141.851 70.6534 142.085 70.8616 142.554 70.8616H147.723C148.181 70.8616 148.41 70.6534 148.41 70.2318C148.41 69.8466 148.155 69.5655 147.645 69.3885C147.14 69.2116 146.885 68.8576 146.885 68.3267ZM158.013 55.6726C156.572 55.7299 155.291 56.0786 154.182 56.7137C153.068 57.3487 152.204 58.1608 151.595 59.1498C151.018 60.0711 150.653 61.0028 150.513 61.9398C150.44 62.4655 150.409 63.0121 150.409 63.569C150.409 64.0063 150.424 64.4487 150.466 64.8964C150.648 66.9212 151.418 68.4828 152.777 69.5811C154.136 70.6743 155.812 71.2312 157.8 71.2416C158.596 71.2416 159.44 71.1375 160.34 70.9293C161.241 70.7211 161.996 70.3411 162.605 69.7946C162.849 69.5811 163.052 69.3001 163.214 68.9513C163.359 68.6494 163.427 68.4204 163.427 68.2694C163.427 68.1341 163.385 68.0248 163.292 67.9311C163.172 67.8478 163.037 67.8113 162.896 67.8113C162.62 67.8113 162.157 67.9831 161.506 68.3267C160.46 68.9097 159.518 69.196 158.685 69.196C158.503 69.196 158.331 69.1803 158.17 69.1491C157.113 68.9982 156.134 68.3267 155.239 67.1399C154.557 66.2133 154.167 65.0213 154.068 63.5534C154.037 63.2411 154.021 62.934 154.021 62.6373C154.021 61.7576 154.146 60.9508 154.401 60.2325C154.646 59.5297 155.015 58.9363 155.515 58.447C156.051 57.9265 156.821 57.6454 157.816 57.5934H158.17C159.023 57.5934 159.736 57.7652 160.319 58.1087C160.918 58.4679 161.407 59.0561 161.782 59.8785C161.912 60.196 162.12 60.3678 162.407 60.399H162.469C162.802 60.399 162.995 60.2429 163.047 59.9253L163.323 57.1822C161.756 56.1723 160.101 55.6726 158.352 55.6726H158.013ZM169.574 68.3267V58.6448C169.616 58.624 169.751 58.572 169.986 58.4939C170.241 58.3898 170.537 58.2753 170.881 58.1503C171.219 58.0202 171.5 57.9161 171.724 57.838C172.255 57.661 172.739 57.5778 173.176 57.5778C173.905 57.5778 174.53 57.8328 175.05 58.3377C175.914 59.181 176.347 60.6853 176.347 62.8403V70.3567C176.347 70.6899 176.56 70.8616 176.987 70.8616H180.693C181.151 70.8616 181.38 70.6534 181.38 70.2318C181.38 69.8466 181.125 69.5655 180.615 69.3885C180.11 69.2116 179.855 68.8576 179.855 68.3267V62.8403C179.855 59.6443 179.199 57.5465 177.887 56.5419C177.044 55.9017 176.144 55.5789 175.186 55.5789C175.045 55.5789 174.905 55.5841 174.759 55.5945C173.723 55.6934 172.718 55.9173 171.74 56.266C171.355 56.3962 170.949 56.5471 170.522 56.7085C170.095 56.8698 169.777 56.9896 169.574 57.0572V47.7866C168.58 48.1198 167.763 48.3748 167.128 48.5414C166.493 48.708 165.858 48.8069 165.228 48.8381C164.77 48.8381 164.541 49.0463 164.541 49.4627C164.541 49.8583 164.796 50.1498 165.306 50.332C165.811 50.5142 166.066 50.8681 166.066 51.3835V68.3267C166.066 68.8576 165.811 69.2116 165.306 69.3885C164.796 69.5655 164.541 69.8466 164.541 70.2318C164.541 70.6534 164.775 70.8616 165.244 70.8616H170.412C170.871 70.8616 171.1 70.6534 171.1 70.2318C171.1 69.8466 170.845 69.5655 170.34 69.3885C169.829 69.2116 169.574 68.8576 169.574 68.3267Z" fill="#030303"/>
</g>
<defs>
<filter id="filter0_d_29_23" x="0" y="0" width="185.38" height="95.682" filterUnits="userSpaceOnUse" color-interpolation-filters="sRGB">
<feFlood flood-opacity="0" result="BackgroundImageFix"/>
<feColorMatrix in="SourceAlpha" type="matrix" values="0 0 0 0 0 0 0 0 0 0 0 0 0 0 0 0 0 0 127 0" result="hardAlpha"/>
<feOffset dy="4"/>
<feGaussianBlur stdDeviation="2"/>
<feComposite in2="hardAlpha" operator="out"/>
<feColorMatrix type="matrix" values="0 0 0 0 0 0 0 0 0 0 0 0 0 0 0 0 0 0 0.25 0"/>
<feBlend mode="normal" in2="BackgroundImageFix" result="effect1_dropShadow_29_23"/>
<feBlend mode="normal" in="SourceGraphic" in2="effect1_dropShadow_29_23" result="shape"/>
</filter>
</defs>
</svg>
