<svg width="11" height="11" viewBox="0 0 11 11" fill="none" xmlns="http://www.w3.org/2000/svg">
<path d="M3.44019 9.92292H1.54575C1.35949 9.92292 1.2085 9.77193 1.2085 9.58567V1.55338C1.2085 1.36712 1.35949 1.21613 1.54575 1.21613H3.44019C3.62644 1.21613 3.77744 1.36712 3.77744 1.55338V9.58567C3.77744 9.77193 3.62644 9.92292 3.44019 9.92292Z" fill="#333333" stroke="#CCCCCC"/>
<path d="M9.45483 9.91511H7.56039C7.37414 9.91511 7.22314 9.76411 7.22314 9.57786V1.54556C7.22314 1.35931 7.37414 1.20831 7.56039 1.20831H9.45483C9.64109 1.20831 9.79208 1.35931 9.79208 1.54556V9.57786C9.79208 9.76411 9.64109 9.91511 9.45483 9.91511Z" fill="#333333" stroke="#CCCCCC"/>
<mask id="path-3-inside-1_40_791" fill="white">
<path d="M3.5853 0.730835C3.74871 0.883623 3.85241 1.09952 3.85241 1.34092V9.37322C3.85241 9.83562 3.47756 10.2105 3.01516 10.2105H1.12072C1.071 10.2105 1.02297 10.2041 0.975586 10.1958C1.12519 10.3356 1.32472 10.423 1.54572 10.423H3.44016C3.90256 10.423 4.27741 10.0481 4.27741 9.58572V1.55342C4.27741 1.14075 3.97821 0.799898 3.5853 0.730835Z"/>
</mask>
<path d="M3.5853 0.730835C3.74871 0.883623 3.85241 1.09952 3.85241 1.34092V9.37322C3.85241 9.83562 3.47756 10.2105 3.01516 10.2105H1.12072C1.071 10.2105 1.02297 10.2041 0.975586 10.1958C1.12519 10.3356 1.32472 10.423 1.54572 10.423H3.44016C3.90256 10.423 4.27741 10.0481 4.27741 9.58572V1.55342C4.27741 1.14075 3.97821 0.799898 3.5853 0.730835Z" fill="#333333"/>
<path d="M3.5853 0.730835L3.75842 -0.254066L0.444745 -0.836513L2.90234 1.46129L3.5853 0.730835ZM0.975586 10.1958L1.14786 9.21076L-2.16216 8.63187L0.29275 10.9264L0.975586 10.1958ZM4.27741 1.55342H3.27741H4.27741ZM2.90234 1.46129C2.87694 1.43754 2.85241 1.39427 2.85241 1.34092H4.85241C4.85241 0.80478 4.62049 0.329705 4.26826 0.000380158L2.90234 1.46129ZM2.85241 1.34092V9.37322H4.85241V1.34092H2.85241ZM2.85241 9.37322C2.85241 9.28333 2.92528 9.21047 3.01516 9.21047V11.2105C4.02985 11.2105 4.85241 10.3879 4.85241 9.37322H2.85241ZM3.01516 9.21047H1.12072V11.2105H3.01516V9.21047ZM1.12072 9.21047C1.13854 9.21047 1.15085 9.21161 1.15555 9.21212C1.15978 9.21258 1.15856 9.21263 1.14786 9.21076L0.803313 11.1809C0.875048 11.1934 0.987626 11.2105 1.12072 11.2105V9.21047ZM0.29275 10.9264C0.614722 11.2273 1.05412 11.423 1.54572 11.423V9.42297C1.59533 9.42297 1.63565 9.44395 1.65842 9.46523L0.29275 10.9264ZM1.54572 11.423H3.44016V9.42297H1.54572V11.423ZM3.44016 11.423C4.45485 11.423 5.27741 10.6004 5.27741 9.58572H3.27741C3.27741 9.49583 3.35028 9.42297 3.44016 9.42297V11.423ZM5.27741 9.58572V1.55342H3.27741V9.58572H5.27741ZM5.27741 1.55342C5.27741 0.642624 4.61695 -0.103161 3.75842 -0.254066L3.41218 1.71574C3.33947 1.70296 3.27741 1.63887 3.27741 1.55342H5.27741Z" fill="#CCCCCC" mask="url(#path-3-inside-1_40_791)"/>
<mask id="path-5-inside-2_40_791" fill="white">
<path d="M9.59995 0.7229C9.76336 0.875688 9.86706 1.09159 9.86706 1.33299V9.36528C9.86706 9.82768 9.49221 10.2025 9.02981 10.2025H7.13537C7.08565 10.2025 7.03762 10.1962 6.99023 10.1879C7.13983 10.3277 7.33937 10.415 7.56037 10.415H9.45481C9.91721 10.415 10.2921 10.0402 10.2921 9.57778V1.54549C10.2921 1.13281 9.99286 0.79175 9.59995 0.7229Z"/>
</mask>
<path d="M9.59995 0.7229C9.76336 0.875688 9.86706 1.09159 9.86706 1.33299V9.36528C9.86706 9.82768 9.49221 10.2025 9.02981 10.2025H7.13537C7.08565 10.2025 7.03762 10.1962 6.99023 10.1879C7.13983 10.3277 7.33937 10.415 7.56037 10.415H9.45481C9.91721 10.415 10.2921 10.0402 10.2921 9.57778V1.54549C10.2921 1.13281 9.99286 0.79175 9.59995 0.7229Z" fill="#333333"/>
<path d="M9.59995 0.7229L9.77255 -0.262092L6.46175 -0.842242L8.91699 1.45336L9.59995 0.7229ZM6.99023 10.1879L7.16251 9.20282L3.85249 8.62394L6.3074 10.9184L6.99023 10.1879ZM8.91699 1.45336C8.89159 1.42961 8.86706 1.38633 8.86706 1.33299H10.8671C10.8671 0.796843 10.6351 0.321769 10.2829 -0.00755441L8.91699 1.45336ZM8.86706 1.33299V9.36528H10.8671V1.33299H8.86706ZM8.86706 9.36528C8.86706 9.2754 8.93993 9.20253 9.02981 9.20253V11.2025C10.0445 11.2025 10.8671 10.38 10.8671 9.36528H8.86706ZM9.02981 9.20253H7.13537V11.2025H9.02981V9.20253ZM7.13537 9.20253C7.15319 9.20253 7.1655 9.20368 7.1702 9.20419C7.17443 9.20465 7.17321 9.20469 7.16251 9.20282L6.81796 11.1729C6.8897 11.1855 7.00227 11.2025 7.13537 11.2025V9.20253ZM6.3074 10.9184C6.62937 11.2194 7.06877 11.415 7.56037 11.415V9.41503C7.60997 9.41503 7.6503 9.43602 7.67307 9.4573L6.3074 10.9184ZM7.56037 11.415H9.45481V9.41503H7.56037V11.415ZM9.45481 11.415C10.4695 11.415 11.2921 10.5925 11.2921 9.57778H9.29206C9.29206 9.4879 9.36493 9.41503 9.45481 9.41503V11.415ZM11.2921 9.57778V1.54549H9.29206V9.57778H11.2921ZM11.2921 1.54549C11.2921 0.635096 10.6319 -0.111503 9.77255 -0.262092L9.42735 1.70789C9.35379 1.695 9.29206 1.63053 9.29206 1.54549H11.2921Z" fill="#CCCCCC" mask="url(#path-5-inside-2_40_791)"/>
<path d="M3.44019 10.4229H1.54575C1.08335 10.4229 0.708496 10.0481 0.708496 9.58567V1.55338C0.708496 1.09098 1.08335 0.716125 1.54575 0.716125H3.44019C3.90259 0.716125 4.27744 1.09098 4.27744 1.55338V9.58567C4.27744 10.0481 3.90259 10.4229 3.44019 10.4229Z" fill="#333333" stroke="#CCCCCC" stroke-miterlimit="10"/>
<path d="M9.45483 10.4151H7.56039C7.09799 10.4151 6.72314 10.0403 6.72314 9.57786V1.54556C6.72314 1.08316 7.09799 0.708313 7.56039 0.708313H9.45483C9.91723 0.708313 10.2921 1.08316 10.2921 1.54556V9.57786C10.2921 10.0403 9.91723 10.4151 9.45483 10.4151Z" fill="#333333" stroke="#CCCCCC" stroke-miterlimit="10"/>
</svg>
