<svg width="11" height="12" viewBox="0 0 11 12" fill="none" xmlns="http://www.w3.org/2000/svg">
<path d="M9.48562 6.12173L1.5 10.7322V1.51126L9.48562 6.12173Z" fill="#333333" stroke="#CCCCCC"/>
<mask id="path-2-inside-1_17_398" fill="white">
<path d="M9.75709 5.70125L1.7282 1.0658C1.67976 1.03795 1.62967 1.02215 1.57936 1.01196L9.34135 5.49338C9.665 5.68026 9.665 6.14754 9.34135 6.33442L1.31246 10.9699C1.23991 11.0116 1.16363 11.0297 1.08838 11.0324C1.22474 11.2274 1.49601 11.3116 1.7282 11.1777L9.75709 6.54228C10.0807 6.35541 10.0807 5.88812 9.75709 5.70125Z"/>
</mask>
<path d="M9.75709 5.70125L1.7282 1.0658C1.67976 1.03795 1.62967 1.02215 1.57936 1.01196L9.34135 5.49338C9.665 5.68026 9.665 6.14754 9.34135 6.33442L1.31246 10.9699C1.23991 11.0116 1.16363 11.0297 1.08838 11.0324C1.22474 11.2274 1.49601 11.3116 1.7282 11.1777L9.75709 6.54228C10.0807 6.35541 10.0807 5.88812 9.75709 5.70125Z" fill="#333333"/>
<path d="M9.75709 5.70125L10.2571 4.83524L10.2571 4.83523L9.75709 5.70125ZM1.7282 1.0658L2.22819 0.199773L2.22674 0.198935L1.7282 1.0658ZM1.57936 1.01196L1.77781 0.0318523L1.07936 1.87799L1.57936 1.01196ZM9.34135 5.49338L9.84138 4.62737L9.84136 4.62736L9.34135 5.49338ZM9.34135 6.33442L9.84135 7.20044L9.84138 7.20043L9.34135 6.33442ZM1.31246 10.9699L1.81154 11.8364L1.81246 11.8359L1.31246 10.9699ZM1.08838 11.0324L1.05249 10.0331L-0.784679 10.0991L0.268901 11.6055L1.08838 11.0324ZM1.7282 11.1777L2.22767 12.0441L2.22819 12.0438L1.7282 11.1777ZM9.75709 6.54228L10.2571 7.40831L10.2571 7.40829L9.75709 6.54228ZM10.2571 4.83523L2.22819 0.199774L1.2282 1.93183L9.25709 6.56728L10.2571 4.83523ZM2.22674 0.198935C2.05887 0.102393 1.89928 0.0564469 1.77781 0.0318523L1.38091 1.99207C1.36005 1.98785 1.30066 1.9735 1.22966 1.93267L2.22674 0.198935ZM1.07936 1.87799L8.84135 6.35941L9.84136 4.62736L2.07937 0.145939L1.07936 1.87799ZM8.84133 6.35939C8.49835 6.16136 8.49835 5.66644 8.84133 5.46841L9.84138 7.20043C10.8317 6.62865 10.8317 5.19915 9.84138 4.62737L8.84133 6.35939ZM8.84136 5.46839L0.812463 10.1038L1.81246 11.8359L9.84135 7.20044L8.84136 5.46839ZM0.813383 10.1033C0.901521 10.0525 0.988799 10.0354 1.05249 10.0331L1.12427 12.0318C1.33846 12.0241 1.57831 11.9707 1.81154 11.8364L0.813383 10.1033ZM0.268901 11.6055C0.67296 12.1833 1.50312 12.4618 2.22767 12.0441L1.22872 10.3114C1.4889 10.1614 1.77652 10.2715 1.90786 10.4593L0.268901 11.6055ZM2.22819 12.0438L10.2571 7.40831L9.25709 5.67626L1.2282 10.3117L2.22819 12.0438ZM10.2571 7.40829C11.2474 6.83651 11.2474 5.40702 10.2571 4.83524L9.25706 6.56726C8.91408 6.36923 8.91408 5.87431 9.25706 5.67627L10.2571 7.40829Z" fill="#CCCCCC" mask="url(#path-2-inside-1_17_398)"/>
<path d="M1.72837 1.06576L9.75726 5.70121C10.0809 5.88809 10.0809 6.35537 9.75726 6.54225L1.72837 11.1777C1.40472 11.3646 1 11.1309 1 10.7572V1.48628C1 1.11253 1.40451 0.87889 1.72837 1.06576Z" fill="#333333" stroke="#CCCCCC" stroke-miterlimit="10"/>
</svg>
